<mxfile host="app.diagrams.net" modified="2024-05-15T15:11:34.466Z" agent="Mozilla/5.0 (Windows NT 10.0; Win64; x64) AppleWebKit/537.36 (KHTML, like Gecko) Chrome/124.0.0.0 Safari/537.36" version="24.4.0" etag="7fWj4XrD835oWx_e0hkG" type="github">
  <diagram name="Page-1" id="wQHkv0WpLa6nVZSXB76O">
    <mxGraphModel>
      <root>
        <mxCell id="0" />
        <mxCell id="1" parent="0" />
      </root>
    </mxGraphModel>
  </diagram>
</mxfile>
